<svg width="293" height="111" viewBox="0 0 293 111" fill="none" xmlns="http://www.w3.org/2000/svg">
<rect width="293" height="111" fill="white"/>
<path d="M108.905 27.22C108.932 26.4067 109.139 25.68 109.525 25.04C109.925 24.3867 110.445 23.8733 111.085 23.5C111.739 23.1267 112.452 22.94 113.225 22.94C113.905 22.94 114.419 23.04 114.765 23.24C115.125 23.44 115.259 23.7133 115.165 24.06C115.125 24.2467 115.039 24.38 114.905 24.46C114.785 24.54 114.639 24.58 114.465 24.58C114.305 24.58 114.119 24.5667 113.905 24.54C113.119 24.4467 112.419 24.5 111.805 24.7C111.205 24.8867 110.725 25.2 110.365 25.64C110.005 26.08 109.825 26.6067 109.825 27.22H108.905ZM109.005 34C108.739 34 108.532 33.9267 108.385 33.78C108.239 33.6333 108.165 33.4267 108.165 33.16V23.9C108.165 23.6333 108.239 23.4267 108.385 23.28C108.532 23.1333 108.739 23.06 109.005 23.06C109.272 23.06 109.472 23.1333 109.605 23.28C109.752 23.4267 109.825 23.6333 109.825 23.9V33.16C109.825 33.4267 109.752 33.6333 109.605 33.78C109.472 33.9267 109.272 34 109.005 34ZM121.72 34.1C120.627 34.1 119.66 33.8667 118.82 33.4C117.98 32.92 117.32 32.26 116.84 31.42C116.36 30.58 116.12 29.62 116.12 28.54C116.12 27.4467 116.347 26.4867 116.8 25.66C117.254 24.82 117.874 24.16 118.66 23.68C119.46 23.2 120.38 22.96 121.42 22.96C122.434 22.96 123.314 23.1933 124.06 23.66C124.82 24.1133 125.4 24.7467 125.8 25.56C126.214 26.3733 126.42 27.3 126.42 28.34C126.42 28.5667 126.347 28.7533 126.2 28.9C126.054 29.0333 125.867 29.1 125.64 29.1H117.28V27.72H125.74L124.88 28.32C124.894 27.5867 124.76 26.9267 124.48 26.34C124.2 25.7533 123.8 25.2933 123.28 24.96C122.76 24.6267 122.14 24.46 121.42 24.46C120.66 24.46 119.994 24.6333 119.42 24.98C118.86 25.3267 118.427 25.8133 118.12 26.44C117.827 27.0533 117.68 27.7533 117.68 28.54C117.68 29.3267 117.854 30.0267 118.2 30.64C118.547 31.2533 119.02 31.7333 119.62 32.08C120.234 32.4267 120.934 32.6 121.72 32.6C122.174 32.6 122.634 32.52 123.1 32.36C123.58 32.2 123.96 32 124.24 31.76C124.4 31.64 124.58 31.58 124.78 31.58C124.994 31.5667 125.167 31.62 125.3 31.74C125.5 31.9133 125.6 32.1 125.6 32.3C125.614 32.5 125.527 32.6733 125.34 32.82C124.9 33.1933 124.34 33.5 123.66 33.74C122.98 33.98 122.334 34.1 121.72 34.1ZM133.534 34.1C132.481 34.1 131.541 33.86 130.714 33.38C129.887 32.8867 129.234 32.22 128.754 31.38C128.287 30.54 128.054 29.5933 128.054 28.54C128.054 27.4733 128.281 26.52 128.734 25.68C129.201 24.84 129.827 24.18 130.614 23.7C131.414 23.2067 132.334 22.96 133.374 22.96C134.174 22.96 134.914 23.12 135.594 23.44C136.274 23.7467 136.874 24.2133 137.394 24.84C137.554 25.0267 137.607 25.22 137.554 25.42C137.514 25.6067 137.394 25.7733 137.194 25.92C137.034 26.0267 136.854 26.0667 136.654 26.04C136.467 26 136.294 25.8933 136.134 25.72C135.401 24.8933 134.481 24.48 133.374 24.48C132.641 24.48 131.994 24.6533 131.434 25C130.887 25.3467 130.461 25.8267 130.154 26.44C129.847 27.04 129.694 27.74 129.694 28.54C129.694 29.3133 129.854 30.0067 130.174 30.62C130.507 31.22 130.961 31.7 131.534 32.06C132.121 32.4067 132.787 32.58 133.534 32.58C134.041 32.58 134.494 32.5133 134.894 32.38C135.307 32.2467 135.674 32.04 135.994 31.76C136.181 31.6133 136.367 31.5333 136.554 31.52C136.741 31.5067 136.914 31.56 137.074 31.68C137.247 31.84 137.347 32.02 137.374 32.22C137.401 32.42 137.334 32.6 137.174 32.76C136.201 33.6533 134.987 34.1 133.534 34.1ZM145.308 34.1C144.294 34.1 143.388 33.86 142.588 33.38C141.788 32.8867 141.154 32.22 140.688 31.38C140.221 30.54 139.988 29.5933 139.988 28.54C139.988 27.4733 140.228 26.52 140.708 25.68C141.201 24.84 141.868 24.18 142.708 23.7C143.548 23.2067 144.494 22.96 145.548 22.96C146.588 22.96 147.521 23.2067 148.348 23.7C149.188 24.18 149.848 24.84 150.328 25.68C150.821 26.52 151.074 27.4733 151.088 28.54L150.408 28.88C150.408 29.8667 150.181 30.7533 149.728 31.54C149.288 32.3267 148.681 32.9533 147.908 33.42C147.148 33.8733 146.281 34.1 145.308 34.1ZM145.548 32.58C146.294 32.58 146.954 32.4067 147.528 32.06C148.114 31.7 148.574 31.2133 148.908 30.6C149.254 29.9867 149.428 29.3 149.428 28.54C149.428 27.7667 149.254 27.08 148.908 26.48C148.574 25.8667 148.114 25.38 147.528 25.02C146.954 24.66 146.294 24.48 145.548 24.48C144.814 24.48 144.148 24.66 143.548 25.02C142.961 25.38 142.494 25.8667 142.148 26.48C141.801 27.08 141.628 27.7667 141.628 28.54C141.628 29.3 141.801 29.9867 142.148 30.6C142.494 31.2133 142.961 31.7 143.548 32.06C144.148 32.4067 144.814 32.58 145.548 32.58ZM150.228 34C149.988 34 149.781 33.9267 149.608 33.78C149.448 33.62 149.368 33.4133 149.368 33.16V29.86L149.748 28.12L151.088 28.54V33.16C151.088 33.4133 151.008 33.62 150.848 33.78C150.688 33.9267 150.481 34 150.228 34ZM156.523 34C155.963 34 155.47 33.8533 155.043 33.56C154.617 33.2533 154.283 32.8333 154.043 32.3C153.803 31.7667 153.683 31.1533 153.683 30.46V19.22C153.683 18.9667 153.757 18.7667 153.903 18.62C154.063 18.46 154.27 18.38 154.523 18.38C154.763 18.38 154.957 18.46 155.103 18.62C155.263 18.7667 155.343 18.9667 155.343 19.22V30.46C155.343 31.0067 155.45 31.46 155.663 31.82C155.89 32.1667 156.177 32.34 156.523 32.34H157.023C157.237 32.34 157.41 32.42 157.543 32.58C157.677 32.7267 157.743 32.92 157.743 33.16C157.743 33.4133 157.643 33.62 157.443 33.78C157.257 33.9267 157.01 34 156.703 34H156.523ZM162.285 34C161.725 34 161.232 33.8533 160.805 33.56C160.378 33.2533 160.045 32.8333 159.805 32.3C159.565 31.7667 159.445 31.1533 159.445 30.46V19.22C159.445 18.9667 159.518 18.7667 159.665 18.62C159.825 18.46 160.032 18.38 160.285 18.38C160.525 18.38 160.718 18.46 160.865 18.62C161.025 18.7667 161.105 18.9667 161.105 19.22V30.46C161.105 31.0067 161.212 31.46 161.425 31.82C161.652 32.1667 161.938 32.34 162.285 32.34H162.785C162.998 32.34 163.172 32.42 163.305 32.58C163.438 32.7267 163.505 32.92 163.505 33.16C163.505 33.4133 163.405 33.62 163.205 33.78C163.018 33.9267 162.772 34 162.465 34H162.285ZM166.027 34.32C165.693 34.32 165.407 34.2 165.167 33.96C164.927 33.72 164.807 33.4333 164.807 33.1C164.807 32.74 164.927 32.44 165.167 32.2C165.42 31.96 165.707 31.84 166.027 31.84C166.373 31.84 166.667 31.9667 166.907 32.22C167.147 32.46 167.267 32.7533 167.267 33.1C167.267 33.42 167.147 33.7067 166.907 33.96C166.68 34.2 166.387 34.32 166.027 34.32ZM174.8 34.1C173.786 34.1 172.88 33.86 172.08 33.38C171.28 32.8867 170.646 32.22 170.18 31.38C169.713 30.54 169.48 29.5933 169.48 28.54C169.48 27.4733 169.72 26.52 170.2 25.68C170.693 24.84 171.36 24.18 172.2 23.7C173.04 23.2067 173.986 22.96 175.04 22.96C176.08 22.96 177.013 23.2067 177.84 23.7C178.68 24.18 179.34 24.84 179.82 25.68C180.313 26.52 180.566 27.4733 180.58 28.54L179.9 28.88C179.9 29.8667 179.673 30.7533 179.22 31.54C178.78 32.3267 178.173 32.9533 177.4 33.42C176.64 33.8733 175.773 34.1 174.8 34.1ZM175.04 32.58C175.786 32.58 176.446 32.4067 177.02 32.06C177.606 31.7 178.066 31.2133 178.4 30.6C178.746 29.9867 178.92 29.3 178.92 28.54C178.92 27.7667 178.746 27.08 178.4 26.48C178.066 25.8667 177.606 25.38 177.02 25.02C176.446 24.66 175.786 24.48 175.04 24.48C174.306 24.48 173.64 24.66 173.04 25.02C172.453 25.38 171.986 25.8667 171.64 26.48C171.293 27.08 171.12 27.7667 171.12 28.54C171.12 29.3 171.293 29.9867 171.64 30.6C171.986 31.2133 172.453 31.7 173.04 32.06C173.64 32.4067 174.306 32.58 175.04 32.58ZM179.72 34C179.48 34 179.273 33.9267 179.1 33.78C178.94 33.62 178.86 33.4133 178.86 33.16V29.86L179.24 28.12L180.58 28.54V33.16C180.58 33.4133 180.5 33.62 180.34 33.78C180.18 33.9267 179.973 34 179.72 34ZM184.715 34C184.462 34 184.255 33.9267 184.095 33.78C183.935 33.62 183.855 33.4067 183.855 33.14V23.92C183.855 23.6533 183.935 23.4467 184.095 23.3C184.255 23.14 184.462 23.06 184.715 23.06C184.969 23.06 185.169 23.14 185.315 23.3C185.475 23.4467 185.555 23.6533 185.555 23.92V33.14C185.555 33.4067 185.475 33.62 185.315 33.78C185.169 33.9267 184.969 34 184.715 34ZM184.695 21.08C184.375 21.08 184.102 20.9667 183.875 20.74C183.649 20.5 183.535 20.22 183.535 19.9C183.535 19.5667 183.649 19.2933 183.875 19.08C184.115 18.8667 184.389 18.76 184.695 18.76C185.002 18.76 185.269 18.8667 185.495 19.08C185.735 19.2933 185.855 19.5667 185.855 19.9C185.855 20.22 185.742 20.5 185.515 20.74C185.289 20.9667 185.015 21.08 184.695 21.08Z" fill="black"/>
<path d="M16.2077 60.7734V59.5455H23.5248V60.7734H20.5749V69H19.153V60.7734H16.2077ZM26.4113 64.7898V69H25.0309V59.5455H26.3928V63.0632H26.4805C26.6467 62.6816 26.9006 62.3784 27.2422 62.1538C27.5839 61.9291 28.0301 61.8168 28.581 61.8168C29.0673 61.8168 29.492 61.9168 29.8552 62.1168C30.2214 62.3169 30.5045 62.6154 30.7046 63.0124C30.9077 63.4064 31.0093 63.8988 31.0093 64.4897V69H29.629V64.6559C29.629 64.1358 29.4951 63.7326 29.2273 63.4464C28.9596 63.1571 28.5872 63.0124 28.1101 63.0124C27.7839 63.0124 27.4915 63.0817 27.233 63.2202C26.9776 63.3587 26.776 63.5618 26.6282 63.8295C26.4836 64.0942 26.4113 64.4143 26.4113 64.7898ZM35.9074 69.1431C35.2087 69.1431 34.6071 68.9938 34.1023 68.6953C33.6007 68.3937 33.2129 67.9705 32.939 67.4258C32.6681 66.878 32.5327 66.2363 32.5327 65.5007C32.5327 64.7744 32.6681 64.1342 32.939 63.5803C33.2129 63.0263 33.5945 62.5939 34.0839 62.283C34.5763 61.9722 35.1518 61.8168 35.8104 61.8168C36.2105 61.8168 36.5983 61.8829 36.9738 62.0153C37.3492 62.1476 37.6862 62.3554 37.9848 62.6385C38.2833 62.9216 38.5187 63.2894 38.6911 63.7418C38.8634 64.1912 38.9496 64.7375 38.9496 65.3807V65.87H33.3129V64.8359H37.597C37.597 64.4728 37.5231 64.1512 37.3754 63.8711C37.2277 63.5879 37.0199 63.3648 36.7522 63.2017C36.4875 63.0386 36.1767 62.957 35.8196 62.957C35.4319 62.957 35.0933 63.0524 34.804 63.2433C34.5178 63.431 34.2962 63.6772 34.1392 63.9819C33.9854 64.2835 33.9084 64.6113 33.9084 64.9652V65.7731C33.9084 66.247 33.9915 66.6502 34.1577 66.9826C34.327 67.315 34.5624 67.5689 34.864 67.7443C35.1656 67.9167 35.518 68.0028 35.9212 68.0028C36.1828 68.0028 36.4213 67.9659 36.6368 67.892C36.8522 67.8151 37.0384 67.7012 37.1954 67.5504C37.3523 67.3996 37.4723 67.2134 37.5554 66.9918L38.8619 67.2273C38.7573 67.612 38.5695 67.949 38.2987 68.2383C38.0309 68.5245 37.6939 68.7476 37.2877 68.9077C36.8845 69.0646 36.4244 69.1431 35.9074 69.1431ZM44.831 69H43.3168L46.7191 59.5455H48.3672L51.7696 69H50.2554L47.5824 61.2628H47.5086L44.831 69ZM45.0849 65.2976H49.9968V66.4979H45.0849V65.2976ZM53.1349 69V59.5455H56.5049C57.2405 59.5455 57.8499 59.6793 58.3331 59.9471C58.8162 60.2148 59.1779 60.5811 59.4179 61.0458C59.658 61.5075 59.778 62.0276 59.778 62.6062C59.778 63.1879 59.6564 63.7111 59.4133 64.1758C59.1733 64.6374 58.8101 65.0037 58.3238 65.2745C57.8406 65.5423 57.2328 65.6761 56.5003 65.6761H54.1828V64.4666H56.371C56.8358 64.4666 57.2128 64.3866 57.5021 64.2266C57.7914 64.0634 58.0037 63.8419 58.1392 63.5618C58.2746 63.2817 58.3423 62.9632 58.3423 62.6062C58.3423 62.2492 58.2746 61.9322 58.1392 61.6552C58.0037 61.3782 57.7898 61.1612 57.4975 61.0043C57.2082 60.8473 56.8265 60.7688 56.3526 60.7688H54.5614V69H53.1349ZM62.8768 59.5455V69H61.4503V59.5455H62.8768ZM71.5939 61.9091V63.017H67.7207V61.9091H71.5939ZM68.7594 60.2102H70.1397V66.918C70.1397 67.1857 70.1797 67.3873 70.2597 67.5227C70.3397 67.6551 70.4428 67.7459 70.569 67.7951C70.6983 67.8413 70.8383 67.8643 70.9891 67.8643C71.0999 67.8643 71.1969 67.8567 71.28 67.8413C71.3631 67.8259 71.4277 67.8136 71.4739 67.8043L71.7231 68.9446C71.6431 68.9754 71.5293 69.0062 71.3815 69.0369C71.2338 69.0708 71.0491 69.0893 70.8275 69.0923C70.4644 69.0985 70.1258 69.0339 69.8119 68.8984C69.498 68.763 69.2441 68.5537 69.0502 68.2706C68.8563 67.9875 68.7594 67.632 68.7594 67.2042V60.2102ZM76.0315 69.1431C75.3667 69.1431 74.7866 68.9908 74.2911 68.6861C73.7956 68.3814 73.4109 67.9551 73.1369 67.4073C72.863 66.8595 72.7261 66.2193 72.7261 65.4869C72.7261 64.7513 72.863 64.1081 73.1369 63.5572C73.4109 63.0063 73.7956 62.5785 74.2911 62.2738C74.7866 61.9691 75.3667 61.8168 76.0315 61.8168C76.6962 61.8168 77.2764 61.9691 77.7719 62.2738C78.2674 62.5785 78.6521 63.0063 78.926 63.5572C79.1999 64.1081 79.3369 64.7513 79.3369 65.4869C79.3369 66.2193 79.1999 66.8595 78.926 67.4073C78.6521 67.9551 78.2674 68.3814 77.7719 68.6861C77.2764 68.9908 76.6962 69.1431 76.0315 69.1431ZM76.0361 67.9844C76.467 67.9844 76.824 67.8705 77.1071 67.6428C77.3903 67.415 77.5995 67.1119 77.735 66.7333C77.8734 66.3548 77.9427 65.9377 77.9427 65.4822C77.9427 65.0298 77.8734 64.6143 77.735 64.2358C77.5995 63.8542 77.3903 63.5479 77.1071 63.3171C76.824 63.0863 76.467 62.9709 76.0361 62.9709C75.6021 62.9709 75.2421 63.0863 74.9558 63.3171C74.6727 63.5479 74.4619 63.8542 74.3234 64.2358C74.188 64.6143 74.1203 65.0298 74.1203 65.4822C74.1203 65.9377 74.188 66.3548 74.3234 66.7333C74.4619 67.1119 74.6727 67.415 74.9558 67.6428C75.2421 67.8705 75.6021 67.9844 76.0361 67.9844ZM87.2911 71.8068C86.7278 71.8068 86.2431 71.733 85.8369 71.5852C85.4337 71.4375 85.1044 71.2421 84.8489 70.9989C84.5935 70.7558 84.4027 70.4896 84.2765 70.2003L85.4629 69.7109C85.546 69.8464 85.6568 69.9895 85.7953 70.1403C85.9369 70.2942 86.1277 70.425 86.3678 70.5327C86.6109 70.6404 86.9233 70.6942 87.3049 70.6942C87.8281 70.6942 88.2605 70.5665 88.6021 70.3111C88.9438 70.0587 89.1146 69.6555 89.1146 69.1016V67.7074H89.0269C88.9438 67.8582 88.8237 68.0259 88.6668 68.2106C88.5129 68.3952 88.3005 68.5553 88.0297 68.6907C87.7589 68.8261 87.4065 68.8938 86.9725 68.8938C86.4124 68.8938 85.9077 68.763 85.4583 68.5014C85.0121 68.2367 84.6581 67.8474 84.3965 67.3335C84.138 66.8164 84.0087 66.1809 84.0087 65.4268C84.0087 64.6728 84.1365 64.0265 84.3919 63.4879C84.6504 62.9493 85.0044 62.5369 85.4537 62.2507C85.903 61.9614 86.4124 61.8168 86.9818 61.8168C87.4219 61.8168 87.7773 61.8906 88.0482 62.0384C88.319 62.183 88.5298 62.3523 88.6806 62.5462C88.8345 62.7401 88.953 62.9109 89.0361 63.0586H89.1377V61.9091H90.4903V69.157C90.4903 69.7663 90.3487 70.2665 90.0656 70.6573C89.7824 71.0482 89.3993 71.3375 88.9161 71.5252C88.4359 71.7129 87.8943 71.8068 87.2911 71.8068ZM87.2772 67.7489C87.6742 67.7489 88.0097 67.6566 88.2836 67.4719C88.5606 67.2842 88.7699 67.0165 88.9114 66.6687C89.0561 66.3178 89.1284 65.8977 89.1284 65.4084C89.1284 64.9313 89.0576 64.5112 88.9161 64.1481C88.7745 63.7849 88.5667 63.5018 88.2928 63.2987C88.0189 63.0924 87.6804 62.9893 87.2772 62.9893C86.8617 62.9893 86.5155 63.0971 86.2385 63.3125C85.9615 63.5249 85.7522 63.8142 85.6107 64.1804C85.4722 64.5466 85.4029 64.956 85.4029 65.4084C85.4029 65.8731 85.4737 66.2809 85.6153 66.6317C85.7569 66.9826 85.9661 67.2565 86.2431 67.4535C86.5232 67.6504 86.8679 67.7489 87.2772 67.7489ZM95.3976 69.1431C94.699 69.1431 94.0973 68.9938 93.5926 68.6953C93.0909 68.3937 92.7031 67.9705 92.4292 67.4258C92.1584 66.878 92.0229 66.2363 92.0229 65.5007C92.0229 64.7744 92.1584 64.1342 92.4292 63.5803C92.7031 63.0263 93.0847 62.5939 93.5741 62.283C94.0665 61.9722 94.642 61.8168 95.3006 61.8168C95.7007 61.8168 96.0885 61.8829 96.464 62.0153C96.8395 62.1476 97.1765 62.3554 97.475 62.6385C97.7735 62.9216 98.009 63.2894 98.1813 63.7418C98.3537 64.1912 98.4399 64.7375 98.4399 65.3807V65.87H92.8031V64.8359H97.0872C97.0872 64.4728 97.0134 64.1512 96.8656 63.8711C96.7179 63.5879 96.5102 63.3648 96.2424 63.2017C95.9777 63.0386 95.6669 62.957 95.3099 62.957C94.9221 62.957 94.5836 63.0524 94.2943 63.2433C94.008 63.431 93.7864 63.6772 93.6295 63.9819C93.4756 64.2835 93.3987 64.6113 93.3987 64.9652V65.7731C93.3987 66.247 93.4818 66.6502 93.6479 66.9826C93.8172 67.315 94.0527 67.5689 94.3543 67.7443C94.6559 67.9167 95.0083 68.0028 95.4114 68.0028C95.673 68.0028 95.9116 67.9659 96.127 67.892C96.3424 67.8151 96.5286 67.7012 96.6856 67.5504C96.8426 67.3996 96.9626 67.2134 97.0457 66.9918L98.3521 67.2273C98.2475 67.612 98.0598 67.949 97.7889 68.2383C97.5212 68.5245 97.1842 68.7476 96.7779 68.9077C96.3747 69.0646 95.9146 69.1431 95.3976 69.1431ZM103.281 61.9091V63.017H99.4082V61.9091H103.281ZM100.447 60.2102H101.827V66.918C101.827 67.1857 101.867 67.3873 101.947 67.5227C102.027 67.6551 102.13 67.7459 102.257 67.7951C102.386 67.8413 102.526 67.8643 102.677 67.8643C102.787 67.8643 102.884 67.8567 102.967 67.8413C103.051 67.8259 103.115 67.8136 103.161 67.8043L103.411 68.9446C103.331 68.9754 103.217 69.0062 103.069 69.0369C102.921 69.0708 102.737 69.0893 102.515 69.0923C102.152 69.0985 101.813 69.0339 101.499 68.8984C101.186 68.763 100.932 68.5537 100.738 68.2706C100.544 67.9875 100.447 67.632 100.447 67.2042V60.2102ZM111.559 61.9091V63.017H107.686V61.9091H111.559ZM108.724 60.2102H110.105V66.918C110.105 67.1857 110.145 67.3873 110.225 67.5227C110.305 67.6551 110.408 67.7459 110.534 67.7951C110.663 67.8413 110.803 67.8643 110.954 67.8643C111.065 67.8643 111.162 67.8567 111.245 67.8413C111.328 67.8259 111.393 67.8136 111.439 67.8043L111.688 68.9446C111.608 68.9754 111.494 69.0062 111.346 69.0369C111.199 69.0708 111.014 69.0893 110.792 69.0923C110.429 69.0985 110.091 69.0339 109.777 68.8984C109.463 68.763 109.209 68.5537 109.015 68.2706C108.821 67.9875 108.724 67.632 108.724 67.2042V60.2102ZM113.086 69V61.9091H114.42V63.0355H114.494C114.623 62.6539 114.851 62.3538 115.177 62.1353C115.506 61.9137 115.879 61.8029 116.294 61.8029C116.38 61.8029 116.482 61.806 116.599 61.8121C116.719 61.8183 116.813 61.826 116.88 61.8352V63.1555C116.825 63.1402 116.726 63.1232 116.585 63.1048C116.443 63.0832 116.302 63.0724 116.16 63.0724C115.834 63.0724 115.543 63.1417 115.288 63.2802C115.035 63.4156 114.835 63.6049 114.688 63.848C114.54 64.0881 114.466 64.362 114.466 64.6697V69H113.086ZM120.075 69.157C119.626 69.157 119.219 69.0739 118.856 68.9077C118.493 68.7384 118.205 68.4937 117.993 68.1737C117.784 67.8536 117.679 67.4612 117.679 66.9964C117.679 66.5964 117.756 66.267 117.91 66.0085C118.064 65.75 118.271 65.5453 118.533 65.3945C118.795 65.2437 119.087 65.1299 119.41 65.0529C119.733 64.976 120.063 64.9175 120.398 64.8775C120.823 64.8282 121.168 64.7882 121.432 64.7575C121.697 64.7236 121.889 64.6697 122.009 64.5959C122.129 64.522 122.189 64.402 122.189 64.2358V64.2035C122.189 63.8003 122.075 63.4879 121.848 63.2663C121.623 63.0447 121.288 62.9339 120.841 62.9339C120.377 62.9339 120.01 63.037 119.743 63.2433C119.478 63.4464 119.295 63.6726 119.193 63.9219L117.896 63.6264C118.05 63.1955 118.275 62.8478 118.57 62.5831C118.869 62.3153 119.212 62.1214 119.599 62.0014C119.987 61.8783 120.395 61.8168 120.823 61.8168C121.106 61.8168 121.406 61.8506 121.723 61.9183C122.043 61.983 122.342 62.103 122.619 62.2784C122.899 62.4538 123.128 62.7047 123.307 63.0309C123.485 63.354 123.574 63.7741 123.574 64.2912V69H122.226V68.0305H122.171C122.082 68.209 121.948 68.3845 121.769 68.5568C121.591 68.7292 121.361 68.8723 121.081 68.9862C120.801 69.1 120.466 69.157 120.075 69.157ZM120.375 68.049C120.757 68.049 121.083 67.9736 121.354 67.8228C121.628 67.672 121.835 67.475 121.977 67.2319C122.122 66.9857 122.194 66.7225 122.194 66.4425V65.5284C122.145 65.5777 122.049 65.6238 121.908 65.6669C121.769 65.7069 121.611 65.7423 121.432 65.7731C121.254 65.8008 121.08 65.8269 120.911 65.8516C120.741 65.8731 120.6 65.8916 120.486 65.907C120.218 65.9408 119.973 65.9978 119.752 66.0778C119.533 66.1578 119.358 66.2732 119.226 66.424C119.096 66.5717 119.032 66.7687 119.032 67.0149C119.032 67.3565 119.158 67.6151 119.41 67.7905C119.663 67.9628 119.984 68.049 120.375 68.049ZM126.793 64.7898V69H125.413V61.9091H126.738V63.0632H126.825C126.989 62.6877 127.244 62.3861 127.592 62.1584C127.943 61.9306 128.384 61.8168 128.917 61.8168C129.4 61.8168 129.823 61.9183 130.186 62.1214C130.549 62.3215 130.831 62.62 131.031 63.017C131.231 63.4141 131.331 63.9049 131.331 64.4897V69H129.951V64.6559C129.951 64.1419 129.817 63.7403 129.549 63.451C129.281 63.1586 128.914 63.0124 128.446 63.0124C128.126 63.0124 127.841 63.0817 127.592 63.2202C127.346 63.3587 127.15 63.5618 127.005 63.8295C126.864 64.0942 126.793 64.4143 126.793 64.7898ZM138.496 63.6403L137.245 63.8619C137.192 63.7018 137.109 63.5495 136.996 63.4048C136.885 63.2602 136.734 63.1417 136.543 63.0494C136.352 62.957 136.114 62.9109 135.828 62.9109C135.437 62.9109 135.11 62.9986 134.849 63.174C134.587 63.3464 134.456 63.5695 134.456 63.8434C134.456 64.0804 134.544 64.2712 134.72 64.4158C134.895 64.5605 135.178 64.679 135.569 64.7713L136.695 65.0298C137.348 65.1806 137.834 65.413 138.154 65.7269C138.474 66.0408 138.634 66.4486 138.634 66.9503C138.634 67.375 138.511 67.7536 138.265 68.0859C138.022 68.4152 137.682 68.6738 137.245 68.8615C136.811 69.0492 136.308 69.1431 135.735 69.1431C134.941 69.1431 134.293 68.9738 133.792 68.6353C133.29 68.2937 132.982 67.8089 132.868 67.1811L134.203 66.978C134.286 67.3258 134.456 67.5889 134.715 67.7674C134.973 67.9428 135.311 68.0305 135.726 68.0305C136.178 68.0305 136.54 67.9367 136.811 67.7489C137.082 67.5581 137.217 67.3258 137.217 67.0518C137.217 66.8303 137.134 66.6441 136.968 66.4933C136.805 66.3424 136.554 66.2286 136.215 66.1516L135.015 65.8885C134.353 65.7377 133.864 65.4976 133.547 65.1683C133.233 64.839 133.076 64.422 133.076 63.9173C133.076 63.4987 133.193 63.1325 133.427 62.8185C133.661 62.5046 133.984 62.2599 134.396 62.0845C134.809 61.906 135.281 61.8168 135.814 61.8168C136.58 61.8168 137.183 61.983 137.623 62.3153C138.063 62.6446 138.354 63.0863 138.496 63.6403ZM143.139 69.1431C142.453 69.1431 141.862 68.9877 141.366 68.6768C140.874 68.3629 140.495 67.9305 140.231 67.3796C139.966 66.8287 139.833 66.1978 139.833 65.4869C139.833 64.7667 139.969 64.1312 140.24 63.5803C140.511 63.0263 140.892 62.5939 141.385 62.283C141.877 61.9722 142.457 61.8168 143.125 61.8168C143.664 61.8168 144.144 61.9168 144.565 62.1168C144.987 62.3138 145.327 62.5908 145.586 62.9478C145.847 63.3048 146.003 63.7218 146.052 64.1989H144.708C144.635 63.8665 144.465 63.5803 144.201 63.3402C143.939 63.1001 143.588 62.9801 143.148 62.9801C142.763 62.9801 142.426 63.0817 142.137 63.2848C141.851 63.4848 141.628 63.7711 141.468 64.1435C141.308 64.5128 141.228 64.9498 141.228 65.4545C141.228 65.9716 141.306 66.4179 141.463 66.7933C141.62 67.1688 141.842 67.4596 142.128 67.6658C142.417 67.872 142.757 67.9751 143.148 67.9751C143.41 67.9751 143.647 67.9274 143.859 67.832C144.075 67.7335 144.255 67.5935 144.399 67.4119C144.547 67.2304 144.65 67.0118 144.708 66.7564H146.052C146.003 67.215 145.853 67.6243 145.604 67.9844C145.355 68.3445 145.021 68.6276 144.602 68.8338C144.187 69.04 143.699 69.1431 143.139 69.1431ZM147.528 69V61.9091H148.862V63.0355H148.936C149.065 62.6539 149.293 62.3538 149.619 62.1353C149.949 61.9137 150.321 61.8029 150.736 61.8029C150.823 61.8029 150.924 61.806 151.041 61.8121C151.161 61.8183 151.255 61.826 151.323 61.8352V63.1555C151.267 63.1402 151.169 63.1232 151.027 63.1048C150.886 63.0832 150.744 63.0724 150.603 63.0724C150.276 63.0724 149.986 63.1417 149.73 63.2802C149.478 63.4156 149.278 63.6049 149.13 63.848C148.982 64.0881 148.908 64.362 148.908 64.6697V69H147.528ZM152.517 69V61.9091H153.898V69H152.517ZM153.214 60.815C152.974 60.815 152.768 60.735 152.596 60.5749C152.426 60.4118 152.342 60.2179 152.342 59.9933C152.342 59.7655 152.426 59.5716 152.596 59.4116C152.768 59.2485 152.974 59.1669 153.214 59.1669C153.454 59.1669 153.659 59.2485 153.828 59.4116C154.001 59.5716 154.087 59.7655 154.087 59.9933C154.087 60.2179 154.001 60.4118 153.828 60.5749C153.659 60.735 153.454 60.815 153.214 60.815ZM155.755 71.6591V61.9091H157.103V63.0586H157.218C157.298 62.9109 157.413 62.7401 157.564 62.5462C157.715 62.3523 157.924 62.183 158.192 62.0384C158.46 61.8906 158.814 61.8168 159.254 61.8168C159.826 61.8168 160.337 61.9614 160.787 62.2507C161.236 62.54 161.588 62.957 161.844 63.5018C162.102 64.0465 162.231 64.7021 162.231 65.4684C162.231 66.2347 162.104 66.8918 161.848 67.4396C161.593 67.9844 161.242 68.4045 160.796 68.6999C160.35 68.9923 159.84 69.1385 159.268 69.1385C158.837 69.1385 158.484 69.0662 158.211 68.9215C157.94 68.7769 157.727 68.6076 157.573 68.4137C157.42 68.2198 157.301 68.0475 157.218 67.8967H157.135V71.6591H155.755ZM157.107 65.4545C157.107 65.9531 157.18 66.3902 157.324 66.7656C157.469 67.1411 157.678 67.435 157.952 67.6474C158.226 67.8567 158.561 67.9613 158.958 67.9613C159.371 67.9613 159.716 67.852 159.992 67.6335C160.269 67.4119 160.479 67.1119 160.62 66.7333C160.765 66.3548 160.837 65.9285 160.837 65.4545C160.837 64.9867 160.767 64.5666 160.625 64.1942C160.486 63.8219 160.277 63.5279 159.997 63.3125C159.72 63.0971 159.374 62.9893 158.958 62.9893C158.558 62.9893 158.22 63.0924 157.943 63.2987C157.669 63.5049 157.461 63.7926 157.32 64.1619C157.178 64.5312 157.107 64.9621 157.107 65.4545ZM167.088 61.9091V63.017H163.215V61.9091H167.088ZM164.254 60.2102H165.634V66.918C165.634 67.1857 165.674 67.3873 165.754 67.5227C165.834 67.6551 165.937 67.7459 166.063 67.7951C166.192 67.8413 166.332 67.8643 166.483 67.8643C166.594 67.8643 166.691 67.8567 166.774 67.8413C166.857 67.8259 166.922 67.8136 166.968 67.8043L167.217 68.9446C167.137 68.9754 167.023 69.0062 166.876 69.0369C166.728 69.0708 166.543 69.0893 166.322 69.0923C165.959 69.0985 165.62 69.0339 165.306 68.8984C164.992 68.763 164.738 68.5537 164.544 68.2706C164.35 67.9875 164.254 67.632 164.254 67.2042V60.2102ZM173.814 63.6403L172.563 63.8619C172.511 63.7018 172.428 63.5495 172.314 63.4048C172.203 63.2602 172.052 63.1417 171.861 63.0494C171.671 62.957 171.432 62.9109 171.146 62.9109C170.755 62.9109 170.429 62.9986 170.167 63.174C169.906 63.3464 169.775 63.5695 169.775 63.8434C169.775 64.0804 169.863 64.2712 170.038 64.4158C170.213 64.5605 170.497 64.679 170.887 64.7713L172.014 65.0298C172.666 65.1806 173.153 65.413 173.473 65.7269C173.793 66.0408 173.953 66.4486 173.953 66.9503C173.953 67.375 173.83 67.7536 173.583 68.0859C173.34 68.4152 173 68.6738 172.563 68.8615C172.129 69.0492 171.626 69.1431 171.054 69.1431C170.26 69.1431 169.612 68.9738 169.11 68.6353C168.608 68.2937 168.301 67.8089 168.187 67.1811L169.521 66.978C169.604 67.3258 169.775 67.5889 170.033 67.7674C170.292 67.9428 170.629 68.0305 171.044 68.0305C171.497 68.0305 171.858 67.9367 172.129 67.7489C172.4 67.5581 172.535 67.3258 172.535 67.0518C172.535 66.8303 172.452 66.6441 172.286 66.4933C172.123 66.3424 171.872 66.2286 171.534 66.1516L170.333 65.8885C169.672 65.7377 169.182 65.4976 168.865 65.1683C168.551 64.839 168.394 64.422 168.394 63.9173C168.394 63.4987 168.511 63.1325 168.745 62.8185C168.979 62.5046 169.302 62.2599 169.715 62.0845C170.127 61.906 170.6 61.8168 171.132 61.8168C171.898 61.8168 172.502 61.983 172.942 62.3153C173.382 62.6446 173.673 63.0863 173.814 63.6403ZM177.266 67.7074L177.197 68.2106C177.151 68.5799 177.072 68.9646 176.962 69.3647C176.854 69.7679 176.741 70.1418 176.625 70.4865C176.511 70.8312 176.417 71.1051 176.343 71.3082H175.364C175.404 71.1174 175.46 70.8589 175.53 70.5327C175.601 70.2095 175.67 69.8479 175.738 69.4478C175.806 69.0477 175.857 68.6399 175.89 68.2244L175.937 67.7074H177.266ZM182.504 69V61.9091H183.838V63.0355H183.912C184.041 62.6539 184.269 62.3538 184.595 62.1353C184.924 61.9137 185.297 61.8029 185.712 61.8029C185.798 61.8029 185.9 61.806 186.017 61.8121C186.137 61.8183 186.231 61.826 186.298 61.8352V63.1555C186.243 63.1402 186.144 63.1232 186.003 63.1048C185.861 63.0832 185.72 63.0724 185.578 63.0724C185.252 63.0724 184.961 63.1417 184.706 63.2802C184.453 63.4156 184.253 63.6049 184.106 63.848C183.958 64.0881 183.884 64.362 183.884 64.6697V69H182.504ZM190.295 69.1431C189.596 69.1431 188.995 68.9938 188.49 68.6953C187.988 68.3937 187.601 67.9705 187.327 67.4258C187.056 66.878 186.92 66.2363 186.92 65.5007C186.92 64.7744 187.056 64.1342 187.327 63.5803C187.601 63.0263 187.982 62.5939 188.472 62.283C188.964 61.9722 189.539 61.8168 190.198 61.8168C190.598 61.8168 190.986 61.8829 191.361 62.0153C191.737 62.1476 192.074 62.3554 192.372 62.6385C192.671 62.9216 192.906 63.2894 193.079 63.7418C193.251 64.1912 193.337 64.7375 193.337 65.3807V65.87H187.701V64.8359H191.985C191.985 64.4728 191.911 64.1512 191.763 63.8711C191.615 63.5879 191.408 63.3648 191.14 63.2017C190.875 63.0386 190.564 62.957 190.207 62.957C189.82 62.957 189.481 63.0524 189.192 63.2433C188.905 63.431 188.684 63.6772 188.527 63.9819C188.373 64.2835 188.296 64.6113 188.296 64.9652V65.7731C188.296 66.247 188.379 66.6502 188.545 66.9826C188.715 67.315 188.95 67.5689 189.252 67.7443C189.553 67.9167 189.906 68.0028 190.309 68.0028C190.571 68.0028 190.809 67.9659 191.024 67.892C191.24 67.8151 191.426 67.7012 191.583 67.5504C191.74 67.3996 191.86 67.2134 191.943 66.9918L193.25 67.2273C193.145 67.612 192.957 67.949 192.686 68.2383C192.419 68.5245 192.082 68.7476 191.675 68.9077C191.272 69.0646 190.812 69.1431 190.295 69.1431ZM197.856 69.1431C197.169 69.1431 196.578 68.9877 196.083 68.6768C195.591 68.3629 195.212 67.9305 194.947 67.3796C194.683 66.8287 194.55 66.1978 194.55 65.4869C194.55 64.7667 194.686 64.1312 194.957 63.5803C195.227 63.0263 195.609 62.5939 196.101 62.283C196.594 61.9722 197.174 61.8168 197.842 61.8168C198.38 61.8168 198.861 61.9168 199.282 62.1168C199.704 62.3138 200.044 62.5908 200.302 62.9478C200.564 63.3048 200.719 63.7218 200.769 64.1989H199.425C199.351 63.8665 199.182 63.5803 198.917 63.3402C198.656 63.1001 198.305 62.9801 197.865 62.9801C197.48 62.9801 197.143 63.0817 196.854 63.2848C196.568 63.4848 196.345 63.7711 196.185 64.1435C196.024 64.5128 195.944 64.9498 195.944 65.4545C195.944 65.9716 196.023 66.4179 196.18 66.7933C196.337 67.1688 196.558 67.4596 196.845 67.6658C197.134 67.872 197.474 67.9751 197.865 67.9751C198.127 67.9751 198.364 67.9274 198.576 67.832C198.791 67.7335 198.971 67.5935 199.116 67.4119C199.264 67.2304 199.367 67.0118 199.425 66.7564H200.769C200.719 67.215 200.57 67.6243 200.321 67.9844C200.072 68.3445 199.738 68.6276 199.319 68.8338C198.904 69.04 198.416 69.1431 197.856 69.1431ZM205.232 69.1431C204.567 69.1431 203.987 68.9908 203.491 68.6861C202.996 68.3814 202.611 67.9551 202.337 67.4073C202.063 66.8595 201.926 66.2193 201.926 65.4869C201.926 64.7513 202.063 64.1081 202.337 63.5572C202.611 63.0063 202.996 62.5785 203.491 62.2738C203.987 61.9691 204.567 61.8168 205.232 61.8168C205.896 61.8168 206.477 61.9691 206.972 62.2738C207.468 62.5785 207.852 63.0063 208.126 63.5572C208.4 64.1081 208.537 64.7513 208.537 65.4869C208.537 66.2193 208.4 66.8595 208.126 67.4073C207.852 67.9551 207.468 68.3814 206.972 68.6861C206.477 68.9908 205.896 69.1431 205.232 69.1431ZM205.236 67.9844C205.667 67.9844 206.024 67.8705 206.307 67.6428C206.59 67.415 206.8 67.1119 206.935 66.7333C207.074 66.3548 207.143 65.9377 207.143 65.4822C207.143 65.0298 207.074 64.6143 206.935 64.2358C206.8 63.8542 206.59 63.5479 206.307 63.3171C206.024 63.0863 205.667 62.9709 205.236 62.9709C204.802 62.9709 204.442 63.0863 204.156 63.3171C203.873 63.5479 203.662 63.8542 203.524 64.2358C203.388 64.6143 203.32 65.0298 203.32 65.4822C203.32 65.9377 203.388 66.3548 203.524 66.7333C203.662 67.1119 203.873 67.415 204.156 67.6428C204.442 67.8705 204.802 67.9844 205.236 67.9844ZM210.078 69V61.9091H211.412V63.0355H211.486C211.615 62.6539 211.843 62.3538 212.169 62.1353C212.498 61.9137 212.871 61.8029 213.286 61.8029C213.372 61.8029 213.474 61.806 213.591 61.8121C213.711 61.8183 213.805 61.826 213.873 61.8352V63.1555C213.817 63.1402 213.719 63.1232 213.577 63.1048C213.436 63.0832 213.294 63.0724 213.152 63.0724C212.826 63.0724 212.535 63.1417 212.28 63.2802C212.028 63.4156 211.827 63.6049 211.68 63.848C211.532 64.0881 211.458 64.362 211.458 64.6697V69H210.078ZM217.468 69.1385C216.895 69.1385 216.384 68.9923 215.935 68.6999C215.489 68.4045 215.138 67.9844 214.882 67.4396C214.63 66.8918 214.504 66.2347 214.504 65.4684C214.504 64.7021 214.632 64.0465 214.887 63.5018C215.146 62.957 215.499 62.54 215.949 62.2507C216.398 61.9614 216.908 61.8168 217.477 61.8168C217.917 61.8168 218.271 61.8906 218.539 62.0384C218.809 62.183 219.019 62.3523 219.167 62.5462C219.317 62.7401 219.434 62.9109 219.517 63.0586H219.6V59.5455H220.981V69H219.633V67.8967H219.517C219.434 68.0475 219.314 68.2198 219.157 68.4137C219.003 68.6076 218.791 68.7769 218.52 68.9215C218.249 69.0662 217.899 69.1385 217.468 69.1385ZM217.772 67.9613C218.169 67.9613 218.505 67.8567 218.779 67.6474C219.056 67.435 219.265 67.1411 219.407 66.7656C219.551 66.3902 219.624 65.9531 219.624 65.4545C219.624 64.9621 219.553 64.5312 219.411 64.1619C219.27 63.7926 219.062 63.5049 218.788 63.2987C218.514 63.0924 218.176 62.9893 217.772 62.9893C217.357 62.9893 217.011 63.0971 216.734 63.3125C216.457 63.5279 216.247 63.8219 216.106 64.1942C215.967 64.5666 215.898 64.9867 215.898 65.4545C215.898 65.9285 215.969 66.3548 216.11 66.7333C216.252 67.1119 216.461 67.4119 216.738 67.6335C217.018 67.852 217.363 67.9613 217.772 67.9613ZM222.951 69V61.9091H224.331V69H222.951ZM223.648 60.815C223.408 60.815 223.202 60.735 223.029 60.5749C222.86 60.4118 222.775 60.2179 222.775 59.9933C222.775 59.7655 222.86 59.5716 223.029 59.4116C223.202 59.2485 223.408 59.1669 223.648 59.1669C223.888 59.1669 224.093 59.2485 224.262 59.4116C224.434 59.5716 224.52 59.7655 224.52 59.9933C224.52 60.2179 224.434 60.4118 224.262 60.5749C224.093 60.735 223.888 60.815 223.648 60.815ZM227.568 64.7898V69H226.188V61.9091H227.513V63.0632H227.601C227.764 62.6877 228.019 62.3861 228.367 62.1584C228.718 61.9306 229.16 61.8168 229.692 61.8168C230.175 61.8168 230.598 61.9183 230.962 62.1214C231.325 62.3215 231.606 62.62 231.806 63.017C232.006 63.4141 232.106 63.9049 232.106 64.4897V69H230.726V64.6559C230.726 64.1419 230.592 63.7403 230.325 63.451C230.057 63.1586 229.689 63.0124 229.221 63.0124C228.901 63.0124 228.616 63.0817 228.367 63.2202C228.121 63.3587 227.926 63.5618 227.781 63.8295C227.639 64.0942 227.568 64.4143 227.568 64.7898ZM236.931 71.8068C236.367 71.8068 235.883 71.733 235.477 71.5852C235.073 71.4375 234.744 71.2421 234.489 70.9989C234.233 70.7558 234.042 70.4896 233.916 70.2003L235.103 69.7109C235.186 69.8464 235.296 69.9895 235.435 70.1403C235.577 70.2942 235.767 70.425 236.007 70.5327C236.251 70.6404 236.563 70.6942 236.945 70.6942C237.468 70.6942 237.9 70.5665 238.242 70.3111C238.583 70.0587 238.754 69.6555 238.754 69.1016V67.7074H238.667C238.583 67.8582 238.463 68.0259 238.306 68.2106C238.153 68.3952 237.94 68.5553 237.669 68.6907C237.399 68.8261 237.046 68.8938 236.612 68.8938C236.052 68.8938 235.547 68.763 235.098 68.5014C234.652 68.2367 234.298 67.8474 234.036 67.3335C233.778 66.8164 233.648 66.1809 233.648 65.4268C233.648 64.6728 233.776 64.0265 234.032 63.4879C234.29 62.9493 234.644 62.5369 235.093 62.2507C235.543 61.9614 236.052 61.8168 236.621 61.8168C237.062 61.8168 237.417 61.8906 237.688 62.0384C237.959 62.183 238.169 62.3523 238.32 62.5462C238.474 62.7401 238.593 62.9109 238.676 63.0586H238.777V61.9091H240.13V69.157C240.13 69.7663 239.988 70.2665 239.705 70.6573C239.422 71.0482 239.039 71.3375 238.556 71.5252C238.076 71.7129 237.534 71.8068 236.931 71.8068ZM236.917 67.7489C237.314 67.7489 237.649 67.6566 237.923 67.4719C238.2 67.2842 238.41 67.0165 238.551 66.6687C238.696 66.3178 238.768 65.8977 238.768 65.4084C238.768 64.9313 238.697 64.5112 238.556 64.1481C238.414 63.7849 238.206 63.5018 237.932 63.2987C237.659 63.0924 237.32 62.9893 236.917 62.9893C236.501 62.9893 236.155 63.0971 235.878 63.3125C235.601 63.5249 235.392 63.8142 235.25 64.1804C235.112 64.5466 235.043 64.956 235.043 65.4084C235.043 65.8731 235.113 66.2809 235.255 66.6317C235.396 66.9826 235.606 67.2565 235.883 67.4535C236.163 67.6504 236.508 67.7489 236.917 67.7489ZM247.295 63.6403L246.044 63.8619C245.991 63.7018 245.908 63.5495 245.794 63.4048C245.684 63.2602 245.533 63.1417 245.342 63.0494C245.151 62.957 244.913 62.9109 244.626 62.9109C244.236 62.9109 243.909 62.9986 243.648 63.174C243.386 63.3464 243.255 63.5695 243.255 63.8434C243.255 64.0804 243.343 64.2712 243.518 64.4158C243.694 64.5605 243.977 64.679 244.368 64.7713L245.494 65.0298C246.147 65.1806 246.633 65.413 246.953 65.7269C247.273 66.0408 247.433 66.4486 247.433 66.9503C247.433 67.375 247.31 67.7536 247.064 68.0859C246.821 68.4152 246.481 68.6738 246.044 68.8615C245.61 69.0492 245.106 69.1431 244.534 69.1431C243.74 69.1431 243.092 68.9738 242.591 68.6353C242.089 68.2937 241.781 67.8089 241.667 67.1811L243.001 66.978C243.084 67.3258 243.255 67.5889 243.514 67.7674C243.772 67.9428 244.109 68.0305 244.525 68.0305C244.977 68.0305 245.339 67.9367 245.61 67.7489C245.881 67.5581 246.016 67.3258 246.016 67.0518C246.016 66.8303 245.933 66.6441 245.767 66.4933C245.604 66.3424 245.353 66.2286 245.014 66.1516L243.814 65.8885C243.152 65.7377 242.663 65.4976 242.346 65.1683C242.032 64.839 241.875 64.422 241.875 63.9173C241.875 63.4987 241.992 63.1325 242.226 62.8185C242.46 62.5046 242.783 62.2599 243.195 62.0845C243.608 61.906 244.08 61.8168 244.613 61.8168C245.379 61.8168 245.982 61.983 246.422 62.3153C246.862 62.6446 247.153 63.0863 247.295 63.6403ZM250.747 67.7074L250.677 68.2106C250.631 68.5799 250.553 68.9646 250.442 69.3647C250.334 69.7679 250.222 70.1418 250.105 70.4865C249.991 70.8312 249.897 71.1051 249.823 71.3082H248.845C248.885 71.1174 248.94 70.8589 249.011 70.5327C249.082 70.2095 249.151 69.8479 249.219 69.4478C249.286 69.0477 249.337 68.6399 249.371 68.2244L249.417 67.7074H250.747ZM258.048 69.157C257.598 69.157 257.192 69.0739 256.829 68.9077C256.466 68.7384 256.178 68.4937 255.966 68.1737C255.756 67.8536 255.652 67.4612 255.652 66.9964C255.652 66.5964 255.729 66.267 255.883 66.0085C256.036 65.75 256.244 65.5453 256.506 65.3945C256.767 65.2437 257.06 65.1299 257.383 65.0529C257.706 64.976 258.035 64.9175 258.371 64.8775C258.795 64.8282 259.14 64.7882 259.405 64.7575C259.67 64.7236 259.862 64.6697 259.982 64.5959C260.102 64.522 260.162 64.402 260.162 64.2358V64.2035C260.162 63.8003 260.048 63.4879 259.82 63.2663C259.596 63.0447 259.26 62.9339 258.814 62.9339C258.349 62.9339 257.983 63.037 257.715 63.2433C257.451 63.4464 257.267 63.6726 257.166 63.9219L255.869 63.6264C256.023 63.1955 256.247 62.8478 256.543 62.5831C256.841 62.3153 257.184 62.1214 257.572 62.0014C257.96 61.8783 258.368 61.8168 258.795 61.8168C259.079 61.8168 259.379 61.8506 259.696 61.9183C260.016 61.983 260.314 62.103 260.591 62.2784C260.871 62.4538 261.101 62.7047 261.279 63.0309C261.458 63.354 261.547 63.7741 261.547 64.2912V69H260.199V68.0305H260.144C260.054 68.209 259.92 68.3845 259.742 68.5568C259.563 68.7292 259.334 68.8723 259.054 68.9862C258.774 69.1 258.438 69.157 258.048 69.157ZM258.348 68.049C258.729 68.049 259.056 67.9736 259.326 67.8228C259.6 67.672 259.808 67.475 259.95 67.2319C260.094 66.9857 260.167 66.7225 260.167 66.4425V65.5284C260.117 65.5777 260.022 65.6238 259.88 65.6669C259.742 65.7069 259.583 65.7423 259.405 65.7731C259.226 65.8008 259.052 65.8269 258.883 65.8516C258.714 65.8731 258.572 65.8916 258.458 65.907C258.191 65.9408 257.946 65.9978 257.724 66.0778C257.506 66.1578 257.331 66.2732 257.198 66.424C257.069 66.5717 257.004 66.7687 257.004 67.0149C257.004 67.3565 257.13 67.6151 257.383 67.7905C257.635 67.9628 257.957 68.049 258.348 68.049ZM264.766 64.7898V69H263.385V61.9091H264.71V63.0632H264.798C264.961 62.6877 265.217 62.3861 265.564 62.1584C265.915 61.9306 266.357 61.8168 266.889 61.8168C267.373 61.8168 267.796 61.9183 268.159 62.1214C268.522 62.3215 268.804 62.62 269.004 63.017C269.204 63.4141 269.304 63.9049 269.304 64.4897V69H267.923V64.6559C267.923 64.1419 267.79 63.7403 267.522 63.451C267.254 63.1586 266.886 63.0124 266.418 63.0124C266.098 63.0124 265.814 63.0817 265.564 63.2202C265.318 63.3587 265.123 63.5618 264.978 63.8295C264.837 64.0942 264.766 64.4143 264.766 64.7898ZM273.809 69.1385C273.237 69.1385 272.726 68.9923 272.277 68.6999C271.831 68.4045 271.48 67.9844 271.224 67.4396C270.972 66.8918 270.846 66.2347 270.846 65.4684C270.846 64.7021 270.973 64.0465 271.229 63.5018C271.487 62.957 271.841 62.54 272.291 62.2507C272.74 61.9614 273.249 61.8168 273.819 61.8168C274.259 61.8168 274.613 61.8906 274.88 62.0384C275.151 62.183 275.361 62.3523 275.508 62.5462C275.659 62.7401 275.776 62.9109 275.859 63.0586H275.942V59.5455H277.323V69H275.975V67.8967H275.859C275.776 68.0475 275.656 68.2198 275.499 68.4137C275.345 68.6076 275.133 68.7769 274.862 68.9215C274.591 69.0662 274.24 69.1385 273.809 69.1385ZM274.114 67.9613C274.511 67.9613 274.847 67.8567 275.121 67.6474C275.398 67.435 275.607 67.1411 275.748 66.7656C275.893 66.3902 275.965 65.9531 275.965 65.4545C275.965 64.9621 275.895 64.5312 275.753 64.1619C275.611 63.7926 275.404 63.5049 275.13 63.2987C274.856 63.0924 274.517 62.9893 274.114 62.9893C273.699 62.9893 273.352 63.0971 273.075 63.3125C272.798 63.5279 272.589 63.8219 272.448 64.1942C272.309 64.5666 272.24 64.9867 272.24 65.4545C272.24 65.9285 272.311 66.3548 272.452 66.7333C272.594 67.1119 272.803 67.4119 273.08 67.6335C273.36 67.852 273.705 67.9613 274.114 67.9613ZM69.8581 85V77.9091H71.183V79.0632H71.2707C71.4185 78.6723 71.6601 78.3677 71.9955 78.1491C72.331 77.9276 72.7326 77.8168 73.2004 77.8168C73.6744 77.8168 74.0714 77.9276 74.3915 78.1491C74.7146 78.3707 74.9531 78.6754 75.107 79.0632H75.1809C75.3502 78.6847 75.6195 78.383 75.9888 78.1584C76.3581 77.9306 76.7982 77.8168 77.3091 77.8168C77.9523 77.8168 78.4771 78.0183 78.8833 78.4215C79.2926 78.8247 79.4973 79.4325 79.4973 80.245V85H78.117V80.3743C78.117 79.8942 77.9862 79.5464 77.7246 79.331C77.463 79.1155 77.1506 79.0078 76.7874 79.0078C76.3381 79.0078 75.9888 79.1463 75.7395 79.4233C75.4902 79.6972 75.3655 80.0496 75.3655 80.4805V85H73.9898V80.2866C73.9898 79.9019 73.8698 79.5926 73.6297 79.3587C73.3897 79.1248 73.0773 79.0078 72.6926 79.0078C72.431 79.0078 72.1894 79.0771 71.9678 79.2156C71.7493 79.351 71.5723 79.5402 71.4369 79.7834C71.3046 80.0265 71.2384 80.3081 71.2384 80.6282V85H69.8581ZM84.4035 85.1431C83.7048 85.1431 83.1031 84.9938 82.5984 84.6953C82.0968 84.3937 81.709 83.9705 81.4351 83.4258C81.1642 82.878 81.0288 82.2363 81.0288 81.5007C81.0288 80.7744 81.1642 80.1342 81.4351 79.5803C81.709 79.0263 82.0906 78.5939 82.5799 78.283C83.0724 77.9722 83.6479 77.8168 84.3065 77.8168C84.7066 77.8168 85.0944 77.8829 85.4699 78.0153C85.8453 78.1476 86.1823 78.3554 86.4809 78.6385C86.7794 78.9216 87.0148 79.2894 87.1872 79.7418C87.3595 80.1912 87.4457 80.7375 87.4457 81.3807V81.87H81.809V80.8359H86.0931C86.0931 80.4728 86.0192 80.1512 85.8715 79.8711C85.7238 79.5879 85.516 79.3648 85.2483 79.2017C84.9836 79.0386 84.6727 78.957 84.3157 78.957C83.928 78.957 83.5894 79.0524 83.3001 79.2433C83.0139 79.431 82.7923 79.6772 82.6353 79.9819C82.4815 80.2835 82.4045 80.6113 82.4045 80.9652V81.7731C82.4045 82.247 82.4876 82.6502 82.6538 82.9826C82.8231 83.315 83.0585 83.5689 83.3601 83.7443C83.6617 83.9167 84.0141 84.0028 84.4173 84.0028C84.6789 84.0028 84.9174 83.9659 85.1329 83.892C85.3483 83.8151 85.5345 83.7012 85.6915 83.5504C85.8484 83.3996 85.9684 83.2134 86.0515 82.9918L87.358 83.2273C87.2534 83.612 87.0656 83.949 86.7948 84.2383C86.527 84.5245 86.19 84.7476 85.7838 84.9077C85.3806 85.0646 84.9205 85.1431 84.4035 85.1431ZM92.2872 77.9091V79.017H88.414V77.9091H92.2872ZM89.4527 76.2102H90.8331V82.918C90.8331 83.1857 90.8731 83.3873 90.9531 83.5227C91.0331 83.6551 91.1362 83.7459 91.2624 83.7951C91.3916 83.8413 91.5317 83.8643 91.6825 83.8643C91.7933 83.8643 91.8902 83.8567 91.9733 83.8413C92.0564 83.8259 92.121 83.8136 92.1672 83.8043L92.4165 84.9446C92.3365 84.9754 92.2226 85.0062 92.0749 85.0369C91.9272 85.0708 91.7425 85.0893 91.5209 85.0923C91.1577 85.0985 90.8192 85.0339 90.5053 84.8984C90.1914 84.763 89.9375 84.5537 89.7436 84.2706C89.5497 83.9875 89.4527 83.632 89.4527 83.2042V76.2102ZM95.8777 85.157C95.4284 85.157 95.0221 85.0739 94.659 84.9077C94.2958 84.7384 94.008 84.4937 93.7957 84.1737C93.5864 83.8536 93.4818 83.4612 93.4818 82.9964C93.4818 82.5964 93.5587 82.267 93.7126 82.0085C93.8665 81.75 94.0742 81.5453 94.3358 81.3945C94.5974 81.2437 94.8898 81.1299 95.2129 81.0529C95.5361 80.976 95.8654 80.9175 96.2009 80.8775C96.6256 80.8282 96.9703 80.7882 97.235 80.7575C97.4996 80.7236 97.692 80.6697 97.812 80.5959C97.932 80.522 97.9921 80.402 97.9921 80.2358V80.2035C97.9921 79.8003 97.8782 79.4879 97.6504 79.2663C97.4258 79.0447 97.0903 78.9339 96.644 78.9339C96.1793 78.9339 95.8131 79.037 95.5453 79.2433C95.2806 79.4464 95.0975 79.6726 94.996 79.9219L93.6987 79.6264C93.8526 79.1955 94.0773 78.8478 94.3727 78.5831C94.6713 78.3153 95.0144 78.1214 95.4022 78.0014C95.79 77.8783 96.1978 77.8168 96.6256 77.8168C96.9087 77.8168 97.2088 77.8506 97.5258 77.9183C97.8459 77.983 98.1444 78.103 98.4214 78.2784C98.7015 78.4538 98.9307 78.7047 99.1092 79.0309C99.2877 79.354 99.377 79.7741 99.377 80.2912V85H98.029V84.0305H97.9736C97.8843 84.209 97.7505 84.3845 97.572 84.5568C97.3935 84.7292 97.1642 84.8723 96.8841 84.9862C96.604 85.1 96.2686 85.157 95.8777 85.157ZM96.1778 84.049C96.5594 84.049 96.8856 83.9736 97.1565 83.8228C97.4304 83.672 97.6381 83.475 97.7797 83.2319C97.9243 82.9857 97.9967 82.7225 97.9967 82.4425V81.5284C97.9474 81.5777 97.852 81.6238 97.7104 81.6669C97.572 81.7069 97.4135 81.7423 97.235 81.7731C97.0564 81.8008 96.8826 81.8269 96.7133 81.8516C96.544 81.8731 96.4024 81.8916 96.2886 81.907C96.0208 81.9408 95.7761 81.9978 95.5546 82.0778C95.336 82.1578 95.1606 82.2732 95.0283 82.424C94.899 82.5717 94.8344 82.7687 94.8344 83.0149C94.8344 83.3565 94.9606 83.6151 95.2129 83.7905C95.4653 83.9628 95.7869 84.049 96.1778 84.049ZM103.87 85.1385C103.298 85.1385 102.787 84.9923 102.337 84.6999C101.891 84.4045 101.54 83.9844 101.285 83.4396C101.032 82.8918 100.906 82.2347 100.906 81.4684C100.906 80.7021 101.034 80.0465 101.289 79.5018C101.548 78.957 101.902 78.54 102.351 78.2507C102.801 77.9614 103.31 77.8168 103.879 77.8168C104.319 77.8168 104.673 77.8906 104.941 78.0384C105.212 78.183 105.421 78.3523 105.569 78.5462C105.72 78.7401 105.837 78.9109 105.92 79.0586H106.003V75.5455H107.383V85H106.035V83.8967H105.92C105.837 84.0475 105.717 84.2198 105.56 84.4137C105.406 84.6076 105.193 84.7769 104.923 84.9215C104.652 85.0662 104.301 85.1385 103.87 85.1385ZM104.175 83.9613C104.572 83.9613 104.907 83.8567 105.181 83.6474C105.458 83.435 105.667 83.1411 105.809 82.7656C105.954 82.3902 106.026 81.9531 106.026 81.4545C106.026 80.9621 105.955 80.5312 105.814 80.1619C105.672 79.7926 105.464 79.5049 105.19 79.2987C104.916 79.0924 104.578 78.9893 104.175 78.9893C103.759 78.9893 103.413 79.0971 103.136 79.3125C102.859 79.5279 102.65 79.8219 102.508 80.1942C102.37 80.5666 102.3 80.9867 102.3 81.4545C102.3 81.9285 102.371 82.3548 102.513 82.7333C102.654 83.1119 102.864 83.4119 103.141 83.6335C103.421 83.852 103.765 83.9613 104.175 83.9613ZM111.417 85.157C110.967 85.157 110.561 85.0739 110.198 84.9077C109.835 84.7384 109.547 84.4937 109.335 84.1737C109.125 83.8536 109.021 83.4612 109.021 82.9964C109.021 82.5964 109.098 82.267 109.252 82.0085C109.406 81.75 109.613 81.5453 109.875 81.3945C110.136 81.2437 110.429 81.1299 110.752 81.0529C111.075 80.976 111.404 80.9175 111.74 80.8775C112.165 80.8282 112.509 80.7882 112.774 80.7575C113.039 80.7236 113.231 80.6697 113.351 80.5959C113.471 80.522 113.531 80.402 113.531 80.2358V80.2035C113.531 79.8003 113.417 79.4879 113.189 79.2663C112.965 79.0447 112.629 78.9339 112.183 78.9339C111.718 78.9339 111.352 79.037 111.084 79.2433C110.82 79.4464 110.637 79.6726 110.535 79.9219L109.238 79.6264C109.392 79.1955 109.616 78.8478 109.912 78.5831C110.21 78.3153 110.553 78.1214 110.941 78.0014C111.329 77.8783 111.737 77.8168 112.165 77.8168C112.448 77.8168 112.748 77.8506 113.065 77.9183C113.385 77.983 113.683 78.103 113.96 78.2784C114.241 78.4538 114.47 78.7047 114.648 79.0309C114.827 79.354 114.916 79.7741 114.916 80.2912V85H113.568V84.0305H113.513C113.423 84.209 113.29 84.3845 113.111 84.5568C112.933 84.7292 112.703 84.8723 112.423 84.9862C112.143 85.1 111.808 85.157 111.417 85.157ZM111.717 84.049C112.098 84.049 112.425 83.9736 112.696 83.8228C112.969 83.672 113.177 83.475 113.319 83.2319C113.463 82.9857 113.536 82.7225 113.536 82.4425V81.5284C113.486 81.5777 113.391 81.6238 113.25 81.6669C113.111 81.7069 112.953 81.7423 112.774 81.7731C112.596 81.8008 112.422 81.8269 112.252 81.8516C112.083 81.8731 111.942 81.8916 111.828 81.907C111.56 81.9408 111.315 81.9978 111.094 82.0778C110.875 82.1578 110.7 82.2732 110.567 82.424C110.438 82.5717 110.373 82.7687 110.373 83.0149C110.373 83.3565 110.5 83.6151 110.752 83.7905C111.004 83.9628 111.326 84.049 111.717 84.049ZM120.065 77.9091V79.017H116.191V77.9091H120.065ZM117.23 76.2102H118.61V82.918C118.61 83.1857 118.65 83.3873 118.73 83.5227C118.81 83.6551 118.914 83.7459 119.04 83.7951C119.169 83.8413 119.309 83.8643 119.46 83.8643C119.571 83.8643 119.668 83.8567 119.751 83.8413C119.834 83.8259 119.898 83.8136 119.945 83.8043L120.194 84.9446C120.114 84.9754 120 85.0062 119.852 85.0369C119.705 85.0708 119.52 85.0893 119.298 85.0923C118.935 85.0985 118.597 85.0339 118.283 84.8984C117.969 84.763 117.715 84.5537 117.521 84.2706C117.327 83.9875 117.23 83.632 117.23 83.2042V76.2102ZM123.655 85.157C123.206 85.157 122.799 85.0739 122.436 84.9077C122.073 84.7384 121.785 84.4937 121.573 84.1737C121.364 83.8536 121.259 83.4612 121.259 82.9964C121.259 82.5964 121.336 82.267 121.49 82.0085C121.644 81.75 121.852 81.5453 122.113 81.3945C122.375 81.2437 122.667 81.1299 122.99 81.0529C123.313 80.976 123.643 80.9175 123.978 80.8775C124.403 80.8282 124.748 80.7882 125.012 80.7575C125.277 80.7236 125.469 80.6697 125.589 80.5959C125.709 80.522 125.769 80.402 125.769 80.2358V80.2035C125.769 79.8003 125.656 79.4879 125.428 79.2663C125.203 79.0447 124.868 78.9339 124.421 78.9339C123.957 78.9339 123.59 79.037 123.323 79.2433C123.058 79.4464 122.875 79.6726 122.773 79.9219L121.476 79.6264C121.63 79.1955 121.855 78.8478 122.15 78.5831C122.449 78.3153 122.792 78.1214 123.18 78.0014C123.567 77.8783 123.975 77.8168 124.403 77.8168C124.686 77.8168 124.986 77.8506 125.303 77.9183C125.623 77.983 125.922 78.103 126.199 78.2784C126.479 78.4538 126.708 78.7047 126.887 79.0309C127.065 79.354 127.154 79.7741 127.154 80.2912V85H125.806V84.0305H125.751C125.662 84.209 125.528 84.3845 125.349 84.5568C125.171 84.7292 124.942 84.8723 124.661 84.9862C124.381 85.1 124.046 85.157 123.655 85.157ZM123.955 84.049C124.337 84.049 124.663 83.9736 124.934 83.8228C125.208 83.672 125.415 83.475 125.557 83.2319C125.702 82.9857 125.774 82.7225 125.774 82.4425V81.5284C125.725 81.5777 125.629 81.6238 125.488 81.6669C125.349 81.7069 125.191 81.7423 125.012 81.7731C124.834 81.8008 124.66 81.8269 124.491 81.8516C124.321 81.8731 124.18 81.8916 124.066 81.907C123.798 81.9408 123.553 81.9978 123.332 82.0778C123.113 82.1578 122.938 82.2732 122.806 82.424C122.676 82.5717 122.612 82.7687 122.612 83.0149C122.612 83.3565 122.738 83.6151 122.99 83.7905C123.243 83.9628 123.564 84.049 123.955 84.049ZM135.808 77.9091V79.017H131.801V77.9091H135.808ZM132.9 85V77.0874C132.9 76.6442 132.996 76.2764 133.19 75.984C133.384 75.6886 133.641 75.4685 133.961 75.3239C134.281 75.1761 134.629 75.1023 135.005 75.1023C135.282 75.1023 135.519 75.1254 135.716 75.1715C135.913 75.2146 136.059 75.2546 136.154 75.2915L135.831 76.4087C135.766 76.3903 135.683 76.3687 135.582 76.3441C135.48 76.3164 135.357 76.3026 135.212 76.3026C134.877 76.3026 134.637 76.3857 134.492 76.5518C134.351 76.718 134.28 76.9581 134.28 77.272V85H132.9ZM137.232 85V77.9091H138.566V79.0355H138.64C138.769 78.6539 138.997 78.3538 139.323 78.1353C139.653 77.9137 140.025 77.8029 140.441 77.8029C140.527 77.8029 140.628 77.806 140.745 77.8121C140.865 77.8183 140.959 77.826 141.027 77.8352V79.1555C140.971 79.1402 140.873 79.1232 140.731 79.1048C140.59 79.0832 140.448 79.0724 140.307 79.0724C139.98 79.0724 139.69 79.1417 139.434 79.2802C139.182 79.4156 138.982 79.6049 138.834 79.848C138.686 80.0881 138.612 80.362 138.612 80.6697V85H137.232ZM144.954 85.1431C144.29 85.1431 143.709 84.9908 143.214 84.6861C142.718 84.3814 142.334 83.9551 142.06 83.4073C141.786 82.8595 141.649 82.2193 141.649 81.4869C141.649 80.7513 141.786 80.1081 142.06 79.5572C142.334 79.0063 142.718 78.5785 143.214 78.2738C143.709 77.9691 144.29 77.8168 144.954 77.8168C145.619 77.8168 146.199 77.9691 146.695 78.2738C147.19 78.5785 147.575 79.0063 147.849 79.5572C148.123 80.1081 148.26 80.7513 148.26 81.4869C148.26 82.2193 148.123 82.8595 147.849 83.4073C147.575 83.9551 147.19 84.3814 146.695 84.6861C146.199 84.9908 145.619 85.1431 144.954 85.1431ZM144.959 83.9844C145.39 83.9844 145.747 83.8705 146.03 83.6428C146.313 83.415 146.522 83.1119 146.658 82.7333C146.796 82.3548 146.866 81.9377 146.866 81.4822C146.866 81.0298 146.796 80.6143 146.658 80.2358C146.522 79.8542 146.313 79.5479 146.03 79.3171C145.747 79.0863 145.39 78.9709 144.959 78.9709C144.525 78.9709 144.165 79.0863 143.879 79.3171C143.596 79.5479 143.385 79.8542 143.246 80.2358C143.111 80.6143 143.043 81.0298 143.043 81.4822C143.043 81.9377 143.111 82.3548 143.246 82.7333C143.385 83.1119 143.596 83.415 143.879 83.6428C144.165 83.8705 144.525 83.9844 144.959 83.9844ZM149.8 85V77.9091H151.125V79.0632H151.213C151.361 78.6723 151.602 78.3677 151.938 78.1491C152.273 77.9276 152.675 77.8168 153.143 77.8168C153.617 77.8168 154.014 77.9276 154.334 78.1491C154.657 78.3707 154.896 78.6754 155.049 79.0632H155.123C155.293 78.6847 155.562 78.383 155.931 78.1584C156.3 77.9306 156.741 77.8168 157.251 77.8168C157.895 77.8168 158.419 78.0183 158.826 78.4215C159.235 78.8247 159.44 79.4325 159.44 80.245V85H158.059V80.3743C158.059 79.8942 157.929 79.5464 157.667 79.331C157.405 79.1155 157.093 79.0078 156.73 79.0078C156.28 79.0078 155.931 79.1463 155.682 79.4233C155.433 79.6972 155.308 80.0496 155.308 80.4805V85H153.932V80.2866C153.932 79.9019 153.812 79.5926 153.572 79.3587C153.332 79.1248 153.02 79.0078 152.635 79.0078C152.373 79.0078 152.132 79.0771 151.91 79.2156C151.692 79.351 151.515 79.5402 151.379 79.7834C151.247 80.0265 151.181 80.3081 151.181 80.6282V85H149.8ZM164.73 85V77.9091H166.055V79.0632H166.143C166.291 78.6723 166.532 78.3677 166.868 78.1491C167.203 77.9276 167.605 77.8168 168.072 77.8168C168.546 77.8168 168.943 77.9276 169.264 78.1491C169.587 78.3707 169.825 78.6754 169.979 79.0632H170.053C170.222 78.6847 170.492 78.383 170.861 78.1584C171.23 77.9306 171.67 77.8168 172.181 77.8168C172.824 77.8168 173.349 78.0183 173.755 78.4215C174.165 78.8247 174.369 79.4325 174.369 80.245V85H172.989V80.3743C172.989 79.8942 172.858 79.5464 172.597 79.331C172.335 79.1155 172.023 79.0078 171.659 79.0078C171.21 79.0078 170.861 79.1463 170.612 79.4233C170.362 79.6972 170.238 80.0496 170.238 80.4805V85H168.862V80.2866C168.862 79.9019 168.742 79.5926 168.502 79.3587C168.262 79.1248 167.949 79.0078 167.565 79.0078C167.303 79.0078 167.061 79.0771 166.84 79.2156C166.621 79.351 166.444 79.5402 166.309 79.7834C166.177 80.0265 166.11 80.3081 166.11 80.6282V85H164.73ZM179.276 85.1431C178.577 85.1431 177.975 84.9938 177.47 84.6953C176.969 84.3937 176.581 83.9705 176.307 83.4258C176.036 82.878 175.901 82.2363 175.901 81.5007C175.901 80.7744 176.036 80.1342 176.307 79.5803C176.581 79.0263 176.963 78.5939 177.452 78.283C177.944 77.9722 178.52 77.8168 179.179 77.8168C179.579 77.8168 179.966 77.8829 180.342 78.0153C180.717 78.1476 181.054 78.3554 181.353 78.6385C181.651 78.9216 181.887 79.2894 182.059 79.7418C182.232 80.1912 182.318 80.7375 182.318 81.3807V81.87H176.681V80.8359H180.965C180.965 80.4728 180.891 80.1512 180.744 79.8711C180.596 79.5879 180.388 79.3648 180.12 79.2017C179.856 79.0386 179.545 78.957 179.188 78.957C178.8 78.957 178.461 79.0524 178.172 79.2433C177.886 79.431 177.664 79.6772 177.507 79.9819C177.354 80.2835 177.277 80.6113 177.277 80.9652V81.7731C177.277 82.247 177.36 82.6502 177.526 82.9826C177.695 83.315 177.931 83.5689 178.232 83.7443C178.534 83.9167 178.886 84.0028 179.289 84.0028C179.551 84.0028 179.789 83.9659 180.005 83.892C180.22 83.8151 180.407 83.7012 180.564 83.5504C180.72 83.3996 180.841 83.2134 180.924 82.9918L182.23 83.2273C182.125 83.612 181.938 83.949 181.667 84.2383C181.399 84.5245 181.062 84.7476 180.656 84.9077C180.253 85.0646 179.793 85.1431 179.276 85.1431ZM186.905 85.1431C186.207 85.1431 185.605 84.9938 185.1 84.6953C184.599 84.3937 184.211 83.9705 183.937 83.4258C183.666 82.878 183.531 82.2363 183.531 81.5007C183.531 80.7744 183.666 80.1342 183.937 79.5803C184.211 79.0263 184.593 78.5939 185.082 78.283C185.574 77.9722 186.15 77.8168 186.808 77.8168C187.209 77.8168 187.596 77.8829 187.972 78.0153C188.347 78.1476 188.684 78.3554 188.983 78.6385C189.281 78.9216 189.517 79.2894 189.689 79.7418C189.861 80.1912 189.948 80.7375 189.948 81.3807V81.87H184.311V80.8359H188.595C188.595 80.4728 188.521 80.1512 188.373 79.8711C188.226 79.5879 188.018 79.3648 187.75 79.2017C187.486 79.0386 187.175 78.957 186.818 78.957C186.43 78.957 186.091 79.0524 185.802 79.2433C185.516 79.431 185.294 79.6772 185.137 79.9819C184.983 80.2835 184.906 80.6113 184.906 80.9652V81.7731C184.906 82.247 184.99 82.6502 185.156 82.9826C185.325 83.315 185.56 83.5689 185.862 83.7443C186.164 83.9167 186.516 84.0028 186.919 84.0028C187.181 84.0028 187.419 83.9659 187.635 83.892C187.85 83.8151 188.036 83.7012 188.193 83.5504C188.35 83.3996 188.47 83.2134 188.553 82.9918L189.86 83.2273C189.755 83.612 189.568 83.949 189.297 84.2383C189.029 84.5245 188.692 84.7476 188.286 84.9077C187.883 85.0646 187.422 85.1431 186.905 85.1431ZM194.789 77.9091V79.017H190.916V77.9091H194.789ZM191.955 76.2102H193.335V82.918C193.335 83.1857 193.375 83.3873 193.455 83.5227C193.535 83.6551 193.638 83.7459 193.764 83.7951C193.894 83.8413 194.034 83.8643 194.184 83.8643C194.295 83.8643 194.392 83.8567 194.475 83.8413C194.558 83.8259 194.623 83.8136 194.669 83.8043L194.918 84.9446C194.838 84.9754 194.725 85.0062 194.577 85.0369C194.429 85.0708 194.244 85.0893 194.023 85.0923C193.66 85.0985 193.321 85.0339 193.007 84.8984C192.693 84.763 192.439 84.5537 192.246 84.2706C192.052 83.9875 191.955 83.632 191.955 83.2042V76.2102ZM196.316 85V77.9091H197.696V85H196.316ZM197.013 76.815C196.773 76.815 196.567 76.735 196.395 76.5749C196.225 76.4118 196.141 76.2179 196.141 75.9933C196.141 75.7655 196.225 75.5716 196.395 75.4116C196.567 75.2485 196.773 75.1669 197.013 75.1669C197.253 75.1669 197.458 75.2485 197.627 75.4116C197.8 75.5716 197.886 75.7655 197.886 75.9933C197.886 76.2179 197.8 76.4118 197.627 76.5749C197.458 76.735 197.253 76.815 197.013 76.815ZM200.934 80.7898V85H199.553V77.9091H200.878V79.0632H200.966C201.129 78.6877 201.385 78.3861 201.732 78.1584C202.083 77.9306 202.525 77.8168 203.057 77.8168C203.54 77.8168 203.964 77.9183 204.327 78.1214C204.69 78.3215 204.972 78.62 205.172 79.017C205.372 79.4141 205.472 79.9049 205.472 80.4897V85H204.091V80.6559C204.091 80.1419 203.958 79.7403 203.69 79.451C203.422 79.1586 203.054 79.0124 202.586 79.0124C202.266 79.0124 201.982 79.0817 201.732 79.2202C201.486 79.3587 201.291 79.5618 201.146 79.8295C201.005 80.0942 200.934 80.4143 200.934 80.7898ZM210.296 87.8068C209.733 87.8068 209.248 87.733 208.842 87.5852C208.439 87.4375 208.109 87.2421 207.854 86.9989C207.598 86.7558 207.408 86.4896 207.281 86.2003L208.468 85.7109C208.551 85.8464 208.662 85.9895 208.8 86.1403C208.942 86.2942 209.133 86.425 209.373 86.5327C209.616 86.6404 209.928 86.6942 210.31 86.6942C210.833 86.6942 211.265 86.5665 211.607 86.3111C211.949 86.0587 212.119 85.6555 212.119 85.1016V83.7074H212.032C211.949 83.8582 211.829 84.0259 211.672 84.2106C211.518 84.3952 211.305 84.5553 211.035 84.6907C210.764 84.8261 210.411 84.8938 209.977 84.8938C209.417 84.8938 208.913 84.763 208.463 84.5014C208.017 84.2367 207.663 83.8474 207.401 83.3335C207.143 82.8164 207.014 82.1809 207.014 81.4268C207.014 80.6728 207.141 80.0265 207.397 79.4879C207.655 78.9493 208.009 78.5369 208.459 78.2507C208.908 77.9614 209.417 77.8168 209.987 77.8168C210.427 77.8168 210.782 77.8906 211.053 78.0384C211.324 78.183 211.535 78.3523 211.686 78.5462C211.839 78.7401 211.958 78.9109 212.041 79.0586H212.143V77.9091H213.495V85.157C213.495 85.7663 213.354 86.2665 213.07 86.6573C212.787 87.0482 212.404 87.3375 211.921 87.5252C211.441 87.7129 210.899 87.8068 210.296 87.8068ZM210.282 83.7489C210.679 83.7489 211.015 83.6566 211.288 83.4719C211.565 83.2842 211.775 83.0165 211.916 82.6687C212.061 82.3178 212.133 81.8977 212.133 81.4084C212.133 80.9313 212.063 80.5112 211.921 80.1481C211.779 79.7849 211.572 79.5018 211.298 79.2987C211.024 79.0924 210.685 78.9893 210.282 78.9893C209.867 78.9893 209.52 79.0971 209.243 79.3125C208.966 79.5249 208.757 79.8142 208.616 80.1804C208.477 80.5466 208.408 80.956 208.408 81.4084C208.408 81.8731 208.479 82.2809 208.62 82.6317C208.762 82.9826 208.971 83.2565 209.248 83.4535C209.528 83.6504 209.873 83.7489 210.282 83.7489ZM220.66 79.6403L219.409 79.8619C219.357 79.7018 219.273 79.5495 219.16 79.4048C219.049 79.2602 218.898 79.1417 218.707 79.0494C218.516 78.957 218.278 78.9109 217.992 78.9109C217.601 78.9109 217.275 78.9986 217.013 79.174C216.751 79.3464 216.621 79.5695 216.621 79.8434C216.621 80.0804 216.708 80.2712 216.884 80.4158C217.059 80.5605 217.342 80.679 217.733 80.7713L218.86 81.0298C219.512 81.1806 219.998 81.413 220.318 81.7269C220.638 82.0408 220.798 82.4486 220.798 82.9503C220.798 83.375 220.675 83.7536 220.429 84.0859C220.186 84.4152 219.846 84.6738 219.409 84.8615C218.975 85.0492 218.472 85.1431 217.899 85.1431C217.105 85.1431 216.457 84.9738 215.956 84.6353C215.454 84.2937 215.146 83.8089 215.032 83.1811L216.367 82.978C216.45 83.3258 216.621 83.5889 216.879 83.7674C217.138 83.9428 217.475 84.0305 217.89 84.0305C218.342 84.0305 218.704 83.9367 218.975 83.7489C219.246 83.5581 219.381 83.3258 219.381 83.0518C219.381 82.8303 219.298 82.6441 219.132 82.4933C218.969 82.3424 218.718 82.2286 218.379 82.1516L217.179 81.8885C216.517 81.7377 216.028 81.4976 215.711 81.1683C215.397 80.839 215.24 80.422 215.24 79.9173C215.24 79.4987 215.357 79.1325 215.591 78.8185C215.825 78.5046 216.148 78.2599 216.561 78.0845C216.973 77.906 217.445 77.8168 217.978 77.8168C218.744 77.8168 219.347 77.983 219.787 78.3153C220.228 78.6446 220.518 79.0863 220.66 79.6403ZM223.226 85.0877C222.973 85.0877 222.756 84.9985 222.575 84.82C222.393 84.6384 222.302 84.4199 222.302 84.1644C222.302 83.9121 222.393 83.6966 222.575 83.5181C222.756 83.3365 222.973 83.2457 223.226 83.2457C223.478 83.2457 223.695 83.3365 223.876 83.5181C224.058 83.6966 224.149 83.9121 224.149 84.1644C224.149 84.3337 224.106 84.4891 224.02 84.6307C223.936 84.7692 223.826 84.88 223.687 84.9631C223.549 85.0462 223.395 85.0877 223.226 85.0877Z" fill="black"/>
</svg>
