<svg width="108" height="24" viewBox="0 0 108 24" fill="none" xmlns="http://www.w3.org/2000/svg">
<path d="M1.03197 13.4055C1.06914 12.239 1.35736 11.1969 1.89659 10.279C2.45441 9.34196 3.17958 8.60574 4.07209 8.07032C4.9832 7.5349 5.97797 7.26719 7.05643 7.26719C8.00472 7.26719 8.72062 7.41061 9.20404 7.69745C9.7061 7.98428 9.89199 8.37628 9.76186 8.87345C9.7061 9.14116 9.58521 9.33243 9.39925 9.44712C9.23192 9.56188 9.0274 9.61926 8.78568 9.61926C8.56253 9.61926 8.30226 9.60014 8.00472 9.56188C6.90768 9.42799 5.93149 9.5045 5.07617 9.79134C4.23944 10.059 3.57006 10.5084 3.06802 11.1395C2.56598 11.7705 2.31496 12.5259 2.31496 13.4055H1.03197ZM1.17143 23.1293C0.79954 23.1293 0.511327 23.0242 0.306802 22.8138C0.102263 22.6034 0 22.307 0 21.9246V8.64399C0 8.26152 0.102263 7.96515 0.306802 7.75476C0.511327 7.54443 0.79954 7.43926 1.17143 7.43926C1.54329 7.43926 1.82221 7.54443 2.00815 7.75476C2.21268 7.96515 2.31496 8.26152 2.31496 8.64399V21.9246C2.31496 22.307 2.21268 22.6034 2.00815 22.8138C1.82221 23.0242 1.54329 23.1293 1.17143 23.1293ZM18.9034 23.2727C17.3787 23.2727 16.0306 22.9381 14.8593 22.2688C13.6878 21.5804 12.7674 20.6338 12.098 19.4291C11.4286 18.2244 11.094 16.8476 11.094 15.2986C11.094 13.7306 11.41 12.3537 12.0423 11.1681C12.6744 9.96341 13.539 9.01686 14.6361 8.3285C15.7517 7.64006 17.0348 7.29585 18.485 7.29585C19.8982 7.29585 21.1254 7.63046 22.1667 8.29977C23.2265 8.94995 24.0354 9.85825 24.5932 11.0247C25.1695 12.1912 25.4578 13.5202 25.4578 15.0118C25.4578 15.3369 25.3555 15.6046 25.1511 15.8149C24.9465 16.0061 24.6861 16.1017 24.3701 16.1017H12.7116V14.1226H24.5095L23.3102 14.9831C23.3288 13.9314 23.1429 12.9848 22.7524 12.1434C22.3619 11.302 21.8041 10.6423 21.079 10.1642C20.3538 9.68617 19.4892 9.44712 18.485 9.44712C17.4252 9.44712 16.4954 9.6957 15.696 10.1929C14.915 10.6901 14.3106 11.3881 13.883 12.2868C13.4739 13.1664 13.2695 14.1703 13.2695 15.2986C13.2695 16.4269 13.5111 17.4308 13.9946 18.3104C14.4779 19.19 15.1382 19.8784 15.9749 20.3756C16.8302 20.8729 17.8063 21.1214 18.9034 21.1214C19.5356 21.1214 20.1771 21.0067 20.8279 20.7772C21.4973 20.5478 22.0273 20.2609 22.4177 19.9167C22.6408 19.7446 22.8919 19.6585 23.1708 19.6585C23.4682 19.6395 23.7099 19.7159 23.8959 19.8881C24.1748 20.1366 24.3143 20.4044 24.3143 20.6912C24.3328 20.978 24.2119 21.2265 23.9517 21.4369C23.3381 21.9724 22.5571 22.4122 21.6088 22.7564C20.6605 23.1006 19.7587 23.2727 18.9034 23.2727ZM35.378 23.2727C33.9091 23.2727 32.5982 22.9285 31.4454 22.2401C30.2926 21.5326 29.3814 20.5764 28.712 19.3717C28.0613 18.167 27.7358 16.8092 27.7358 15.2986C27.7358 13.7688 28.052 12.4016 28.6841 11.1969C29.3349 9.99214 30.2089 9.04559 31.3059 8.35716C32.4215 7.64959 33.7045 7.29585 35.1548 7.29585C36.2705 7.29585 37.3025 7.5253 38.2508 7.98428C39.1991 8.42406 40.0358 9.09337 40.7609 9.99214C40.9841 10.2598 41.0585 10.5371 40.9841 10.824C40.9283 11.0917 40.7609 11.3307 40.482 11.5411C40.2589 11.694 40.0079 11.7514 39.729 11.7132C39.4688 11.6558 39.2269 11.5028 39.0038 11.2542C37.9812 10.0686 36.6982 9.47585 35.1548 9.47585C34.1322 9.47585 33.2304 9.72443 32.4494 10.2216C31.6872 10.7188 31.0921 11.4072 30.6644 12.2868C30.2368 13.1473 30.0229 14.1513 30.0229 15.2986C30.0229 16.4077 30.246 17.4022 30.6923 18.2817C31.1572 19.1422 31.7893 19.8307 32.5889 20.347C33.407 20.8442 34.3368 21.0927 35.378 21.0927C36.0846 21.0927 36.7168 20.9971 37.2746 20.8059C37.8511 20.6148 38.3623 20.3183 38.8086 19.9167C39.0689 19.7063 39.3293 19.5916 39.5895 19.5725C39.8499 19.5534 40.0916 19.6299 40.3147 19.802C40.5565 20.0315 40.696 20.2896 40.733 20.5764C40.7703 20.8633 40.6773 21.1214 40.4541 21.3509C39.0968 22.6321 37.4048 23.2727 35.378 23.2727ZM51.7968 23.2727C50.3838 23.2727 49.1194 22.9285 48.0037 22.2401C46.888 21.5326 46.0049 20.5764 45.3541 19.3717C44.7034 18.167 44.3779 16.8092 44.3779 15.2986C44.3779 13.7688 44.7125 12.4016 45.3819 11.1969C46.07 9.99214 46.9996 9.04559 48.1711 8.35716C49.3424 7.64959 50.6627 7.29585 52.1316 7.29585C53.5819 7.29585 54.8836 7.64959 56.0363 8.35716C57.2077 9.04559 58.1281 9.99214 58.7975 11.1969C59.4856 12.4016 59.8388 13.7688 59.8574 15.2986L58.9091 15.7862C58.9091 17.2014 58.5931 18.4729 57.9608 19.6012C57.3472 20.7294 56.5013 21.6281 55.4227 22.2974C54.3628 22.9476 53.1543 23.2727 51.7968 23.2727ZM52.1316 21.0927C53.1729 21.0927 54.0933 20.8442 54.8928 20.347C55.711 19.8307 56.3524 19.1326 56.8172 18.2531C57.3007 17.3734 57.5424 16.3886 57.5424 15.2986C57.5424 14.1896 57.3007 13.2047 56.8172 12.3442C56.3524 11.4646 55.711 10.7666 54.8928 10.2502C54.0933 9.73395 53.1729 9.47585 52.1316 9.47585C51.109 9.47585 50.1792 9.73395 49.3424 10.2502C48.5244 10.7666 47.8736 11.4646 47.3901 12.3442C46.9067 13.2047 46.6649 14.1896 46.6649 15.2986C46.6649 16.3886 46.9067 17.3734 47.3901 18.2531C47.8736 19.1326 48.5244 19.8307 49.3424 20.347C50.1792 20.8442 51.109 21.0927 52.1316 21.0927ZM58.6581 23.1293C58.3234 23.1293 58.0353 23.0242 57.7935 22.8138C57.5703 22.5843 57.4587 22.2878 57.4587 21.9246V17.1918L57.9887 14.6963L59.8574 15.2986V21.9246C59.8574 22.2878 59.7458 22.5843 59.5227 22.8138C59.2996 23.0242 59.0114 23.1293 58.6581 23.1293ZM67.4377 23.1293C66.6568 23.1293 65.9687 22.9189 65.3738 22.4982C64.7787 22.0584 64.3139 21.4561 63.9793 20.6912C63.6446 19.9263 63.4772 19.0466 63.4772 18.0523V1.93198C63.4772 1.56866 63.5794 1.28182 63.784 1.07147C64.0072 0.841999 64.2952 0.727264 64.6487 0.727264C64.9833 0.727264 65.2529 0.841999 65.4575 1.07147C65.6806 1.28182 65.7922 1.56866 65.7922 1.93198V18.0523C65.7922 18.8364 65.9409 19.4865 66.2384 20.0028C66.5544 20.5 66.9542 20.7486 67.4377 20.7486H68.135C68.4325 20.7486 68.6742 20.8633 68.8602 21.0927C69.0461 21.3031 69.1391 21.5804 69.1391 21.9246C69.1391 22.2878 68.9997 22.5843 68.7208 22.8138C68.4603 23.0242 68.1164 23.1293 67.6888 23.1293H67.4377ZM75.4726 23.1293C74.6921 23.1293 74.004 22.9189 73.409 22.4982C72.8138 22.0584 72.349 21.4561 72.0142 20.6912C71.6796 19.9263 71.5122 19.0466 71.5122 18.0523V1.93198C71.5122 1.56866 71.6144 1.28182 71.819 1.07147C72.0422 0.841999 72.3304 0.727264 72.6836 0.727264C73.0183 0.727264 73.2879 0.841999 73.4927 1.07147C73.7157 1.28182 73.8272 1.56866 73.8272 1.93198V18.0523C73.8272 18.8364 73.9761 19.4865 74.2732 20.0028C74.5894 20.5 74.9892 20.7486 75.4726 20.7486H76.1702C76.4673 20.7486 76.7094 20.8633 76.895 21.0927C77.0813 21.3031 77.1738 21.5804 77.1738 21.9246C77.1738 22.2878 77.0344 22.5843 76.7556 22.8138C76.4952 23.0242 76.1512 23.1293 75.7235 23.1293H75.4726Z" fill="#212529"/>
<path d="M96.247 24C102.73 24 107.984 18.6274 107.984 12C107.984 5.37258 102.73 0 96.247 0C89.7651 0 84.5098 5.37258 84.5098 12C84.5098 18.6274 89.7651 24 96.247 24Z" fill="#0D6EFD"/>
</svg>
